<svg version="1.1" id="Icons" xmlns="http://www.w3.org/2000/svg" x="0" y="0" viewBox="0 0 48 48" xml:space="preserve"><style>.st11,.st4{stroke:#45413c;stroke-linecap:round;stroke-linejoin:round;stroke-miterlimit:10}.st4{fill:none}.st11{fill:#45413c}.st43{fill:#e04122}</style><g id="XMLID_619_"><circle id="XMLID_7510_" cx="24" cy="21.5" r="20" fill="#ff6242"/><path id="XMLID_7507_" class="st43" d="M24 1.5c-11 0-20 9-20 20s9 20 20 20 20-9 20-20-9-20-20-20zm0 37c-10.1 0-18.2-8.2-18.2-18.2C5.8 10.2 13.9 2 24 2s18.2 8.2 18.2 18.2c0 10.1-8.1 18.3-18.2 18.3z"/><ellipse id="XMLID_7506_" cx="24" cy="5.5" rx="6" ry="1.5" fill="#ff866e"/><circle id="XMLID_7505_" class="st4" cx="24" cy="21.5" r="20"/><circle id="XMLID_7504_" class="st11" cx="15.5" cy="22.5" r="1"/><path id="XMLID_7503_" class="st4" d="M19.3 21s-3-4.5-6.3-3"/><path id="XMLID_7502_" class="st4" d="M28.7 21s3-4.5 6.3-3"/><circle id="XMLID_7501_" class="st11" cx="32.5" cy="22.5" r="1"/><path id="XMLID_7500_" d="M19 31.5c1.4-1 3.1-1.5 5-1.5 1.8 0 3.6.6 5 1.5" fill="none" stroke="#45413c" stroke-linecap="round" stroke-miterlimit="10"/><g id="XMLID_7496_"><path id="XMLID_7499_" class="st4" d="M30.9 8.4c-.3 1.4-1.6 2.3-2.9 2"/><path id="XMLID_7498_" class="st4" d="M34.4 13c-1.4-.9-1.9-2.7-1-4.1"/><path id="XMLID_7497_" class="st4" d="M28.5 12.8c1.5-.8 3.3-.2 4.1 1.2"/></g><ellipse id="XMLID_7495_" class="st43" cx="36" cy="27" rx="2.5" ry="1.5"/><ellipse id="XMLID_7494_" class="st43" cx="12" cy="27" rx="2.5" ry="1.5"/><ellipse id="XMLID_7493_" cx="24" cy="45.5" rx="16" ry="1.5" opacity=".15" fill="#45413c"/></g></svg>