<svg version="1.1" id="Icons" xmlns="http://www.w3.org/2000/svg" x="0" y="0" viewBox="0 0 48 48" xml:space="preserve"><style>.st10{fill:#fff;stroke:#45413c;stroke-linecap:round;stroke-linejoin:round;stroke-miterlimit:10}</style><g id="XMLID_4831_"><circle id="XMLID_4851_" cx="24" cy="21.5" r="20" fill="#ffe500"/><path id="XMLID_4848_" d="M24 1.5c-11 0-20 9-20 20s9 20 20 20 20-9 20-20-9-20-20-20zm0 37c-10.1 0-18.2-8.2-18.2-18.2C5.7 10.2 13.9 2 24 2s18.2 8.2 18.2 18.2c0 10.1-8.1 18.3-18.2 18.3z" fill="#ebcb00"/><circle id="XMLID_4847_" cx="24" cy="21.5" r="20" fill="none" stroke="#45413c" stroke-linecap="round" stroke-linejoin="round" stroke-miterlimit="10"/><ellipse id="XMLID_4846_" cx="24" cy="5.5" rx="6" ry="1.5" fill="#fff48c"/><g id="XMLID_4835_" stroke="#45413c" stroke-linecap="round" stroke-linejoin="round" stroke-miterlimit="10"><path id="XMLID_4845_" d="M17.9 29.2c-.3 0-.5.1-.7.3-.2.3-.2.5-.2.8.5 3.4 3.5 6 7 6s6.5-2.6 7-6c0-.3 0-.5-.2-.8-.2-.2-.4-.3-.7-.3H17.9z" fill="#ffb0ca"/><path id="XMLID_4836_" d="M29.6 33.6c-1.4-.8-3.4-1.3-5.6-1.3-2.2 0-4.2.5-5.6 1.3 1.3 1.7 3.3 2.7 5.6 2.7s4.3-1.1 5.6-2.7z" fill="#ff87af"/></g><path id="XMLID_4834_" class="st10" d="M20.7 23.4c.1 0 .3-.2.3-.3 0-.1-.1-.3-.3-.3-5-1.4-5.4-1.8-6.8-6.8 0-.1-.2-.3-.3-.3-.1 0-.3.1-.3.3-1.4 5-1.8 5.4-6.8 6.8-.1 0-.3.2-.3.3 0 .1.1.3.3.3 5 1.4 5.4 1.8 6.8 6.8 0 .1.2.3.3.3.1 0 .3-.1.3-.3 1.4-4.9 1.9-5.4 6.8-6.8z"/><path id="XMLID_4833_" class="st10" d="M27.3 23.4c-.1 0-.3-.2-.3-.3 0-.1.1-.3.3-.3 5-1.4 5.4-1.8 6.8-6.8 0-.1.2-.3.3-.3.1 0 .3.1.3.3 1.4 5 1.8 5.4 6.8 6.8.1 0 .3.2.3.3 0 .1-.1.3-.3.3-5 1.4-5.4 1.8-6.8 6.8 0 .1-.2.3-.3.3-.1 0-.3-.1-.3-.3-1.4-4.9-1.9-5.4-6.8-6.8z"/><ellipse id="XMLID_4832_" cx="24" cy="45.5" rx="16" ry="1.5" opacity=".15" fill="#45413c"/></g></svg>