<svg version="1.1" id="Icons" xmlns="http://www.w3.org/2000/svg" x="0" y="0" viewBox="0 0 48 48" xml:space="preserve"><style>.st5{fill:#ffaa54}.st11{fill:#45413c;stroke:#45413c;stroke-linecap:round;stroke-linejoin:round;stroke-miterlimit:10}</style><g id="XMLID_656_"><circle id="XMLID_15_" cx="24" cy="21.5" r="20" fill="#ffe500"/><path id="XMLID_12_" d="M24 1.5c-11 0-20 9-20 20s9 20 20 20 20-9 20-20-9-20-20-20zm0 37c-10.1 0-18.2-8.2-18.2-18.2C5.8 10.2 13.9 2 24 2s18.2 8.2 18.2 18.2c0 10.1-8.1 18.3-18.2 18.3z" fill="#ebcb00"/><ellipse id="XMLID_11_" cx="24" cy="45.5" rx="16" ry="1.5" opacity=".15" fill="#45413c"/><circle id="XMLID_10_" cx="24" cy="21.5" r="20" fill="none" stroke="#45413c" stroke-linecap="round" stroke-linejoin="round" stroke-miterlimit="10"/><path id="XMLID_9_" d="M29 29.5c-1.4 1-3.2 1.5-5 1.5-1.8 0-3.6-.6-5-1.5" fill="none" stroke="#45413c" stroke-linecap="round" stroke-miterlimit="10"/><circle id="XMLID_8_" class="st11" cx="13.5" cy="20.5" r="1"/><circle id="XMLID_4_" class="st11" cx="34.5" cy="20.5" r="1"/><ellipse id="XMLID_3_" class="st5" cx="36" cy="26.5" rx="2.5" ry="1.5"/><ellipse id="XMLID_2_" class="st5" cx="12" cy="26.5" rx="2.5" ry="1.5"/><ellipse id="XMLID_1_" cx="24" cy="5.5" rx="6" ry="1.5" fill="#fff48c"/></g></svg>